<svg xmlns="http://www.w3.org/2000/svg" width="1201.064" height="1201.064" viewBox="0 0 1201.064 1201.064">
  <g id="layer1" transform="translate(594.493 364.879)">
    <g id="g9789" transform="translate(-593.961 -364.347)">
      <path id="path5116-5-2-4" d="M188.407,135.8V163.2h17.372V135.8Z" transform="translate(287.318 490.287)" stroke="#000" stroke-linecap="round" stroke-linejoin="round" stroke-width="1.064"/>
      <path id="path5116-5-2-7-5" d="M194.548,135.8V163.2H211.92V135.8Z" transform="translate(316.167 490.287)" stroke="#000" stroke-linecap="round" stroke-linejoin="round" stroke-width="1.064"/>
      <path id="path5116-5-2-7-8-1" d="M182.265,135.8V163.2h17.372V135.8Z" transform="translate(258.46 490.287)" stroke="#000" stroke-linecap="round" stroke-linejoin="round" stroke-width="1.064"/>
      <path id="path5116-5-2-7-8-6-2-88" d="M218.99,131.93v20.456h13.165V131.93Z" transform="translate(430.991 472.086)" stroke="#000" stroke-linecap="round" stroke-linejoin="round" stroke-width="1.064"/>
      <path id="path5116-5-2-7-8-6-7-0" d="M214.116,131.93v20.456h13.164V131.93Z" transform="translate(408.096 472.086)" stroke="#000" stroke-linecap="round" stroke-linejoin="round" stroke-width="1.064"/>
      <path id="path5116-5-2-7-8-6-2-8-6" d="M204.664,132.717v20.456h13.165V132.717Z" transform="translate(363.689 475.783)" stroke="#000" stroke-linecap="round" stroke-linejoin="round" stroke-width="1.064"/>
      <path id="path12664-00-5" d="M202.719,140.116h144.39" transform="translate(354.553 510.545)" fill="none" stroke="#000" stroke-linecap="round" stroke-width="1.064"/>
      <path id="path5116-5-6" d="M247.962,133.077v40.629h20.455V133.077Z" transform="translate(567.102 477.476)" stroke="#000" stroke-linecap="round" stroke-linejoin="round" stroke-width="1.064"/>
      <path id="rect11409-8" d="M252.022,93.969a18.706,18.706,0,0,0-18.635,17.16l-.071,0V168.6h37.406V111.132h-.071a18.707,18.707,0,0,0-18.635-17.163Z" transform="translate(498.294 293.748)" stroke="#000" stroke-linecap="round" stroke-linejoin="round" stroke-width="1.064"/>
      <path id="path23590-6" d="M244.4,88.873v12.663" transform="translate(550.378 269.806)" fill="none" stroke="#000" stroke-linecap="round" stroke-width="1.064"/>
      <path id="path23592-7" d="M228.157,101.536V88.873" transform="translate(474.057 269.806)" fill="none" stroke="#000" stroke-linecap="round" stroke-width="1.064"/>
      <path id="path8948" d="M233.441,281.776V110.019l20.479.551,42.358,113.617" transform="translate(498.884 369.15)" fill="none" stroke="#000" stroke-width="1.064"/>
      <path id="path7725" d="M228.157,90.875v281.74l95.675,1.225,69,.456,58.174.94h58.173V347.063H437.8l-1.225-35.387-112.748.567-3.11-221.368Z" transform="translate(474.057 279.209)" fill="none" stroke="#000" stroke-width="1.064"/>
      <path id="path29200-4" d="M174.9,105.5h52.738l39.553,41.582c-25.1-.174-50.186.159-75.278.451" transform="translate(223.879 347.916)" fill="none" stroke="#000" stroke-linecap="round" stroke-width="1.064"/>
      <path id="path29600-3" d="M248.3,112.975v21.3H177.846" transform="translate(237.701 383.036)" fill="none" stroke="#000" stroke-linecap="round" stroke-width="1.064"/>
      <path id="path29715-7" d="M189.143,139.025V116.713h0" transform="translate(290.774 400.596)" fill="none" stroke="#000" stroke-linecap="round" stroke-width="1.064"/>
      <path id="path29994-4" d="M177.638,123.369l6.343-.143,115-1.885" transform="translate(236.723 422.337)" fill="none" stroke="#000" stroke-linecap="round" stroke-width="1.064"/>
      <path id="path30109-7" d="M298.485,121.341l34.482,35.5-155.226,1.014" transform="translate(237.21 422.337)" fill="none" stroke="#000" stroke-linecap="round" stroke-width="1.064"/>
      <path id="path30111-2" d="M330.362,127.748V146l-153.144,1.015h1.014" transform="translate(234.749 452.44)" fill="none" stroke="#000" stroke-linecap="round" stroke-width="1.064"/>
      <path id="path30113-0" d="M316.219,131.486l1.014,77.078-139.6-1.612" transform="translate(236.719 470.001)" fill="none" stroke="#000" stroke-linecap="round" stroke-width="1.064"/>
      <path id="path30115-1" d="M300.936,151.265,269.5,114.755l-79.106,1.014" transform="translate(296.63 391.398)" fill="none" stroke="#000" stroke-linecap="round" stroke-width="1.064"/>
      <path id="path30750-9" d="M250.585,121.163H200.89" transform="translate(345.96 421.501)" fill="none" stroke="#000" stroke-linecap="round" stroke-width="1.064"/>
      <path id="path30752-0" d="M208.544,121.341,211.587,225.8" transform="translate(381.92 422.337)" fill="none" stroke="#000" stroke-linecap="round" stroke-width="1.064"/>
      <path id="path30754-8" d="M209.558,162.8l99.39-2.028-28.4-38.539-72.007,1.014h0" transform="translate(381.917 426.519)" fill="none" stroke="#000" stroke-linecap="round" stroke-width="1.064"/>
      <path id="path30756-0" d="M224.92,128.994l2.028,63.894h0" transform="translate(458.849 458.294)" fill="none" stroke="#000" stroke-linecap="round" stroke-width="1.064"/>
      <path id="path30760-9" d="M256,144.03l-28.061-35.6H187.124" transform="translate(281.29 361.669)" fill="none" stroke="#000" stroke-linecap="round" stroke-width="1.064"/>
      <path id="path31418-3" d="M206.942,118.261l69.979-1.014V144.63" transform="translate(374.391 403.105)" fill="none" stroke="#000" stroke-linecap="round" stroke-width="1.064"/>
      <path id="path31420-9" d="M318.554,138.152h15.213L310.441,112.8H197.865" transform="translate(331.75 382.2)" fill="none" stroke="#000" stroke-linecap="round" stroke-width="1.064"/>
      <path id="path32706-8" d="M266.746,142.3,258.5,262.943" transform="translate(616.592 520.817)" fill="none" stroke="#000" stroke-linecap="round" stroke-width="1.064"/>
      <path id="path32671-0-7" d="M276.892,140.846l64.285,150.118" transform="translate(703.013 513.973)" fill="none" stroke="#000" stroke-linecap="round" stroke-width="1.064"/>
      <path id="path32708-6" d="M247.661,147.489l63.108,48.765" transform="translate(565.686 545.179)" fill="none" stroke="#000" stroke-linecap="round" stroke-width="1.064"/>
      <path id="path44379-4" d="M222.52,172l-16.305-12.229" transform="translate(370.975 602.862)" fill="none" stroke="#000" stroke-linecap="round" stroke-width="1.064"/>
      <path id="path51090-4" d="M262.173,159.4c-2.229,3.12-4.559,6.17-6.686,9.361-4.27,6.4-7.761,12.076-14.71,16.048-5.388,3.079-16.637,1.147-20.06,1.337-14.391.8-30.969,4.223-41.457,14.71" transform="translate(244.341 601.133)" fill="none" stroke="#000" stroke-linecap="round" stroke-width="1.064"/>
      <path id="path51092-3" d="M142.91,161.472c42.569,24,86.9,17.061,130.927,26.654,4.062.885,10.356-1.692,12.205,2.539.7,1.6-6.289,9.307,0,16.5" transform="translate(73.572 610.871)" fill="none" stroke="#000" stroke-linecap="round" stroke-width="1.064"/>
      <path id="path51094-9" d="M196.189,164.367c-43.44,3.977-22.98-5.984-55.506,29.2" transform="translate(63.114 624.474)" fill="none" stroke="#000" stroke-linecap="round" stroke-width="1.064"/>
      <path id="path56610-7" d="M188.358,176.051c23.226,9.932,26.532-11.633,39.8.481" transform="translate(287.084 730.393)" fill="none" stroke="#000" stroke-linecap="round" stroke-width="1.064"/>
      <path id="path7964" d="M272.724,177.876c23.6,9.644,28.581-8.9,47.611.575" transform="translate(683.433 677.558)" fill="none" stroke="#000" stroke-linecap="round" stroke-width="1.064"/>
      <path id="path61768" d="M242.9,179.017c23.643,8.754,12.011-11.888,39.995.483" transform="translate(543.299 676.464)" fill="none" stroke="#000" stroke-linecap="round" stroke-width="1.064"/>
      <path id="path7877" d="M227.061,178.728c22.839-10.306,17.892,8.033,37.15.449" transform="translate(468.91 676.769)" fill="none" stroke="#000" stroke-linecap="round" stroke-width="1.064"/>
      <path id="path7433" d="M211.47,178.009c22.234-8.449,17.873,9.234,35.767.432" transform="translate(395.662 677.497)" fill="none" stroke="#000" stroke-linecap="round" stroke-width="1.064"/>
      <path id="path61853" d="M197.11,176.766c16.455,9.568,14.023-4.907,28.742.347" transform="translate(328.202 678.782)" fill="none" stroke="#000" stroke-linecap="round" stroke-width="1.064"/>
      <path id="path7348" d="M179.464,179.094c23.821,5.955,17.68.9,36.271-2.4s24.949,3.583,24.949,3.583" transform="translate(245.301 678.184)" fill="none" stroke="#000" stroke-linecap="round" stroke-width="1.064"/>
      <path id="path61938" d="M148.392,164.5c19.717.238,39.434,15.417,59.151.715" transform="translate(99.329 691.757)" fill="none" stroke="#000" stroke-linecap="round" stroke-width="1.064"/>
      <path id="path8132" d="M134.672,176.081c9.17,8.389,18.947,13.741,32.489.272" transform="translate(34.872 679.504)" fill="none" stroke="#000" stroke-linecap="round" stroke-width="1.064"/>
      <path id="path62103" d="M197.665,187.121c100.91,13.179,49.811-14.541,140.958,1.515" transform="translate(330.809 780.868)" fill="none" stroke="#000" stroke-linecap="round" stroke-width="1.064"/>
      <path id="path62188" d="M183.146,188.52c12.595-16.476,28.438,12.2,50.9.547" transform="translate(262.599 779.954)" fill="none" stroke="#000" stroke-linecap="round" stroke-width="1.064"/>
      <path id="path62188-28" d="M208.672,204.89c25.125,6.232,25.365-10.952,50.9.547" transform="translate(382.52 798.306)" fill="none" stroke="#000" stroke-linecap="round" stroke-width="1.064"/>
      <path id="path62188-2" d="M169.038,179.453c19.545,12.808,33.934-5.7,50.9.548" transform="translate(196.319 758.323)" fill="none" stroke="#000" stroke-linecap="round" stroke-width="1.064"/>
      <path id="path56610-7-6" d="M254.952,181.226c57.222,11.1,53.432-12.12,107.217,1.3" transform="translate(599.941 756.166)" fill="none" stroke="#000" stroke-linecap="round" stroke-width="1.064"/>
      <path id="path61598" d="M250.855,182.833c64.85-13.2,133.81,21.256,165.855,2" transform="translate(580.694 696.674)" fill="none" stroke="#000" stroke-linecap="round" stroke-width="1.064"/>
      <path id="path61513" d="M223.859,181.377c56.153,18.22,33.182-9.178,97.083,1.173" transform="translate(453.869 698.544)" fill="none" stroke="#000" stroke-linecap="round" stroke-width="1.064"/>
      <path id="path61428" d="M196.046,183.6c56.322,13.68,50.758-14.606,99.246,1.2" transform="translate(323.205 697.18)" fill="none" stroke="#000" stroke-linecap="round" stroke-width="1.064"/>
      <path id="path7183" d="M177.2,184.75c34.482,10.227,14.494-17.312,68.636.829" transform="translate(234.663 694.282)" fill="none" stroke="#000" stroke-linecap="round" stroke-width="1.064"/>
      <path id="path61343" d="M165.827,179.456c24.537,11.329,21.6-13.969,45.255.474" transform="translate(181.236 676.028)" fill="none" stroke="#000" stroke-linecap="round" stroke-width="1.064"/>
      <path id="path61258" d="M157.893,186.293c17.748.191,27.522-16.2,53.244.573" transform="translate(143.964 694.648)" fill="none" stroke="#000" stroke-linecap="round" stroke-width="1.064"/>
      <path id="path8137" d="M136.129,182.082c48.26,9.792,34.225-9.2,77.569.834" transform="translate(41.717 697.415)" fill="none" stroke="#000" stroke-linecap="round" stroke-width="1.064"/>
      <path id="path4526" d="M236.05,174.261c103.389-9.478,112.494,20.29,207.049,2.5" transform="translate(511.137 728.622)" fill="none" stroke="#000" stroke-linecap="round" stroke-width="1.064"/>
      <path id="path60699" d="M200.159,175.5c103.454-11.3,81.926,13.917,181.466,2.193" transform="translate(342.527 729.383)" fill="none" stroke="#000" stroke-linecap="round" stroke-width="1.064"/>
      <path id="path60614" d="M141.4,172.193c57.631,21.612,98.3,8.78,125.161,2.351s40.852,13.78,93.213,7.235" transform="translate(66.457 727.89)" fill="none" stroke="#000" stroke-linecap="round" stroke-width="1.064"/>
      <path id="path60529" d="M259.96,186.636c19.576,11.278,24.317-11.154,47.783.514" transform="translate(623.469 781.848)" fill="none" stroke="#000" stroke-linecap="round" stroke-width="1.064"/>
      <path id="path4361" d="M244.633,185.827c27.574-7.875,25.969,10.982,51.145.549" transform="translate(551.461 782.636)" fill="none" stroke="#000" stroke-linecap="round" stroke-width="1.064"/>
      <path id="path4631" d="M231.279,199.764c50.644,13.015,41.907-17.258,81.889.437" transform="translate(488.723 832.631)" fill="none" stroke="#000" stroke-linecap="round" stroke-width="1.064"/>
      <path id="path4636" d="M210.137,198.066c49.015,12.593,40.566-12.422,82.375.439" transform="translate(389.404 833.685)" fill="none" stroke="#000" stroke-linecap="round" stroke-width="1.064"/>
      <path id="path60529-7-3" d="M194.981,210.215c35.031,11.275,31.245-13.1,54.3.584" transform="translate(318.199 822.415)" fill="none" stroke="#000" stroke-linecap="round" stroke-width="1.064"/>
      <path id="path4801" d="M182.672,198.2c22.693,13.052,27.417-12.968,42.725.459" transform="translate(260.371 833.555)" fill="none" stroke="#000" stroke-linecap="round" stroke-width="1.064"/>
      <path id="path60529-7-3-4-6-5" d="M218.616,215.208c51.358,13.966,43.8-12.528,93.725,1.453" transform="translate(429.234 850.353)" fill="none" stroke="#000" stroke-linecap="round" stroke-width="1.064"/>
      <path id="path60529-7-3-4-6-5-3" d="M203.769,215.89c21.3,7.529,26.618-12,51.315,1.168" transform="translate(359.483 849.964)" fill="none" stroke="#000" stroke-linecap="round" stroke-width="1.064"/>
      <path id="path6139" d="M186.8,216.39c33.935,9.084,28.6-13.16,72.369.513" transform="translate(279.747 849.807)" fill="none" stroke="#000" stroke-linecap="round" stroke-width="1.064"/>
      <path id="path6052" d="M172.916,215.419c29.66-12.932,22.513,10.727,52.423,4.473" transform="translate(214.54 845.848)" fill="none" stroke="#000" stroke-linecap="round" stroke-width="1.064"/>
      <path id="path60529-7-3-4-6-5-3-2-5" d="M213.751,222.929c41.524-14.742,35.991,10.661,75.8.214" transform="translate(406.38 877.379)" fill="none" stroke="#000" stroke-linecap="round" stroke-width="1.064"/>
      <path id="path6550" d="M193.355,221.684c42.8-12.317,43.5,12.038,91.456,1.453" transform="translate(310.562 876.967)" fill="none" stroke="#000" stroke-linecap="round" stroke-width="1.064"/>
      <path id="path6465" d="M239.971,217.8c18.455,4.837,16.287-13.04,42.476-1.592" transform="translate(529.557 849.698)" fill="none" stroke="#000" stroke-linecap="round" stroke-width="1.064"/>
      <path id="path60529-7-3-4-6-5-3-7" d="M166.723,207.605c26.03,17.195,27.14-7.972,44.577,1.452" transform="translate(185.444 824.157)" fill="none" stroke="#000" stroke-linecap="round" stroke-width="1.064"/>
      <path id="path56610-7-6-1-9" d="M230.637,187.43c20.622,5.722,14-8.508,37.571-2.29" transform="translate(485.709 781.164)" fill="none" stroke="#000" stroke-linecap="round" stroke-width="1.064"/>
      <path id="path56610-7-6-1-9-3" d="M192.753,203.814c35.935-9.489,24.743,13.4,57.335,1.147" transform="translate(307.731 798.655)" fill="none" stroke="#000" stroke-linecap="round" stroke-width="1.064"/>
      <path id="path56610-7-6-1-9-8" d="M255.911,178.5c18.539,7.257,16.777-10.943,42.727,1.147" transform="translate(604.446 676.217)" fill="none" stroke="#000" stroke-linecap="round" stroke-width="1.064"/>
      <path id="path59760" d="M147.536,186.146c93.992,18.316,79.193-13.721,161.8,1.955" transform="translate(95.308 781.62)" fill="none" stroke="#000" stroke-linecap="round" stroke-width="1.064"/>
      <path id="path59675" d="M240.265,180.437c25.474,11.363,28.479-8.84,51.683.624" transform="translate(530.94 757.299)" fill="none" stroke="#000" stroke-linecap="round" stroke-width="1.064"/>
      <path id="path4120" d="M222.885,182.078c15.88,7.092,24.566-12.36,49.522.6" transform="translate(449.288 755.667)" fill="none" stroke="#000" stroke-linecap="round" stroke-width="1.064"/>
      <path id="path59590" d="M206.508,181.441c20.467-11.129,23,11.175,51.2.619" transform="translate(372.351 756.295)" fill="none" stroke="#000" stroke-linecap="round" stroke-width="1.064"/>
      <path id="path4039" d="M187.792,181.722c21.392,6.249,30.024-11.187,59.031.713" transform="translate(284.428 755.963)" fill="none" stroke="#000" stroke-linecap="round" stroke-width="1.064"/>
      <path id="path59505" d="M143.686,181.045c59.162,17.345,58.85-14.834,101.73,2.3" transform="translate(77.219 755.852)" fill="none" stroke="#000" stroke-linecap="round" stroke-width="1.064"/>
      <path id="path59131-6" d="M177.859,205.216c19.364,7.882,24.978-11.92,52.935.316" transform="translate(237.764 798.586)" fill="none" stroke="#000" stroke-linecap="round" stroke-width="1.064"/>
      <path id="path3686" d="M159.993,202.233c20.44-2.987,26.688,13.019,68.819.41" transform="translate(153.83 800.579)" fill="none" stroke="#000" stroke-linecap="round" stroke-width="1.064"/>
      <path id="rect2127" d="M229.171,74.47h81.875v81.875H229.171Z" transform="translate(478.821 202.143)" fill="none" stroke="#000" stroke-linecap="round" stroke-linejoin="round" stroke-width="1.064" fill-rule="evenodd"/>
      <circle id="path2399" cx="32.071" cy="32.071" r="32.071" transform="translate(716.85 285.478)" fill="none" stroke="#000" stroke-linecap="round" stroke-linejoin="round" stroke-width="1.064"/>
      <path id="path3731" d="M236.315,76.945l.156,27.394" transform="translate(512.384 213.769)" fill="none" stroke="#000" stroke-linecap="round" stroke-linejoin="round" stroke-width="1.064"/>
      <path id="path3731-0" d="M253.806,93.516,236.434,81.862" transform="translate(512.944 236.87)" fill="none" stroke="#000" stroke-linecap="round" stroke-linejoin="round" stroke-width="1.064"/>
      <path id="path4014" d="M228.15,88.837h92.432" transform="translate(474.024 269.639)" fill="none" stroke="#000" stroke-linecap="round" stroke-width="1.064"/>
      <path id="path5806" d="M251.784,71.519c-9.854.008-18.025,7.3-18.712,16.7l37.416-.287c-.835-9.286-8.96-16.417-18.7-16.417Z" transform="translate(497.148 188.278)" fill="none" stroke="#000" stroke-linecap="round" stroke-linejoin="round" stroke-width="1.064"/>
      <path id="path12019-7" d="M164.238,103.314h56.125" transform="translate(173.77 337.648)" fill="none" stroke="#000" stroke-linecap="round" stroke-width="1.064"/>
      <path id="path12019-70" d="M251.679,263.276H307.8m-56.148-28.924H307.78m-3.9,106.573h12.732m3.875,7.75a39.625,39.625,0,0,0-12.731,0q-1.393.227-2.768.554m40.962,0-17.16-.554m-6.089-7.2a6.332,6.332,0,0,0,7.2,0c.172-.119.338-.246.519-.351a1.427,1.427,0,0,1,.588-.2,1.7,1.7,0,0,1,.85.207,4.674,4.674,0,0,0,.811.347,1.621,1.621,0,0,0,1.661-.554m-11.071-7.2,7.2-.554a29.465,29.465,0,0,0,5.535,0,41.391,41.391,0,0,1,7.2-.554,12.121,12.121,0,0,1,2.768.554m-29.338-1.661-14.392.554m39.2,9.173h4.428m-3.223-18.03h4.428M300,323.765q6.638-.287,13.285,0c4.244.184,8.483.544,12.732.554a77.282,77.282,0,0,0,9.41-.554m-35.98-9.41a11.634,11.634,0,0,0,6.089,1.107c1.59-.145,3.13-.617,4.7-.886a8.146,8.146,0,0,1,4.706.333c.377.169.731.384,1.107.554a8.149,8.149,0,0,0,4.128.486c1.4-.132,2.775-.427,4.175-.486,3.147-.132,6.284.932,9.41.554.934-.113,1.848-.354,2.768-.554,1.1-.238,2.207-.419,3.321-.554a41.49,41.49,0,0,1,9.964,0m-118.5,195.545-30.775.453-.665,46.993h0m95.911-253.688h59.286v59.009H295.792ZM339.2,262.985H311.672m59.285-160.167H279.912m-47.64,27.4H418.6m-15.88,11.591H248.152m63.52,56.825V257.64H339.2V198.631H311.672m-31.76-123.21v27.4h-47.64v27.4H228.3v11.591h19.85V262.985h-15.88v290.83H418.6V262.985h-15.88V141.807h19.85V130.215H418.6v-27.4h-47.64v-27.4Zm-16.94,228.791h3.705v59.009h-3.705Zm119.1,0h3.705v59.009h-3.7ZM317.513,447.777c-17.7,0-32.052,10.247-32.052,22.887v70.3h64.1v-70.3C349.565,458.024,335.215,447.777,317.513,447.777Zm6.861-14.085c-25.142,0-45.523,13.21-45.523,29.5v90.621H369.9V463.2c0-16.295-20.381-29.5-45.523-29.5ZM892.81,448.163c-18.125,5.986-38.274,10-55.181,17.174-13.856,13.987-24.863,30.242-40.535,42.784l-92.308,44.963c-150.745.167-301.563-.334-452.262.25-16.373,2.661-37.435,1.2-53,5.141L126.2,617.107c14.737,2.592,25.96,1.318,41.913,2.2l913.365,9.262c-21.051-47.647-24.446-98.258-23.863-148.126-9.059-22.227-22.891-32.079-44.007-32.275H892.81Z" transform="translate(-4.95 206.61)" fill="none" stroke="#000" stroke-linecap="round" stroke-width="1.064"/>
      <path id="path12019-7-8" d="M164.242,108.39h56.125" transform="translate(173.789 361.497)" fill="none" stroke="#000" stroke-linecap="round" stroke-width="1.064"/>
      <path id="rect13887" d="M185.817,140.877c-17.511,0-31.708,9.875-31.711,22.058a15.689,15.689,0,0,0,.752,4.767v64.649h62.863V164.07h-.245q.05-.566.058-1.133c0-12.182-14.2-22.059-31.713-22.059Z" transform="translate(126.172 514.12)" stroke="#000" stroke-linecap="round" stroke-linejoin="round" stroke-width="1.064" fill-rule="evenodd"/>
      <path id="path59131" d="M243.238,206c75.292,10.709,42.541-15.577,121.039.619" transform="translate(544.907 797.497)" fill="none" stroke="#000" stroke-linecap="round" stroke-width="1.064"/>
      <path id="path3468" d="M223.461,192.96c38.566,8.728,35.348-11.119,69.3.355" transform="translate(451.995 809.842)" fill="none" stroke="#000" stroke-linecap="round" stroke-width="1.064"/>
      <path id="path14559" d="M150.987,115.582a163.87,163.87,0,0,1,0,28.158,78.057,78.057,0,0,0-.521,9.386c.132,3.839.966,7.631,1.043,11.472a29.254,29.254,0,0,1-1.043,8.343" transform="translate(108.976 395.286)" fill="none" stroke="#000" stroke-width="1.064"/>
      <path id="path14567" d="M172.048,115.857a157.621,157.621,0,0,1,.521,28.679c-.305,4.175-.777,8.337-1.043,12.514a127.293,127.293,0,0,0,0,16.165" transform="translate(206.804 396.575)" fill="none" stroke="#000" stroke-width="1.064"/>
      <path id="path14608" d="M184.939,154.026H158.8V97.188h26.139Z" transform="translate(148.224 308.872)" stroke="#000" stroke-width="1.064"/>
      <path id="path14987" d="M330.408,83.158H274.615l-129.84-.521" transform="translate(82.337 240.512)" fill="none" stroke="#000" stroke-width="1.064"/>
      <ellipse id="path1853" cx="533.181" cy="533.185" rx="533.181" ry="533.185" transform="translate(66.819 66.815)" fill="none" stroke="#000" stroke-linecap="round" stroke-linejoin="round" stroke-width="1.064"/>
      <circle id="circle2988" cx="600" cy="600" r="600" transform="translate(0)" fill="none" stroke="#000" stroke-linecap="round" stroke-linejoin="round" stroke-width="1.064"/>
      <path id="path12174" d="M188.656,103.314H158.51" transform="translate(146.859 337.648)" fill="#fff" stroke="#000" stroke-width="1.064"/>
      <path id="path2053" d="M236.294,99.671V50.68" transform="translate(512.284 157.034)" fill="none" stroke="#000" stroke-linecap="round" stroke-linejoin="round" stroke-width="1.064"/>
    </g>
  </g>
</svg>
